<svg xmlns="http://www.w3.org/2000/svg" xmlns:xlink="http://www.w3.org/1999/xlink" contentStyleType="text/css" height="1838px" preserveAspectRatio="none" style="width:911px;height:1838px;background:#FFFFFF;" version="1.1" viewBox="0 0 911 1838" width="911px" zoomAndPan="magnify"><defs/><g><!--cluster Application de suivi d'apprentissage--><g id="cluster_Application de suivi d'apprentissage"><rect fill="none" height="1734" rx="4" ry="4" style="stroke:#333333;stroke-width:1.0;" width="348.36" x="369" y="7"/><text fill="#000000" font-family="sans-serif" font-size="14" font-weight="bold" lengthAdjust="spacing" textLength="285" x="400.68" y="21.9951">Application de suivi d'apprentissage</text></g><g id="elem_UC1"><ellipse cx="543.1799" cy="57" fill="#F7F7F7" rx="64.7499" ry="15.35" style="stroke:#333333;stroke-width:0.5;"/><text fill="#000000" font-family="sans-serif" font-size="13" lengthAdjust="spacing" textLength="85" x="497.6799" y="60.2834">S'authentifier</text></g><g id="elem_UC2"><ellipse cx="543.1823" cy="119.0045" fill="#F7F7F7" rx="69.7723" ry="16.3545" style="stroke:#333333;stroke-width:0.5;"/><text fill="#000000" font-family="sans-serif" font-size="13" lengthAdjust="spacing" textLength="98" x="493.3274" y="121.7535">Gérer son profil</text></g><g id="elem_UC3"><ellipse cx="543.1763" cy="995.0033" fill="#F7F7F7" rx="153.4163" ry="33.0833" style="stroke:#333333;stroke-width:0.5;"/><text fill="#000000" font-family="sans-serif" font-size="13" lengthAdjust="spacing" textLength="248" x="419.1763" y="989.9373">Consulter les modules et micro-étapes</text><text fill="#000000" font-family="sans-serif" font-size="13" lengthAdjust="spacing" textLength="101" x="492.6763" y="1005.0701">de sa formation</text></g><g id="elem_UC4"><ellipse cx="543.1771" cy="689.0034" fill="#F7F7F7" rx="109.9171" ry="24.3834" style="stroke:#333333;stroke-width:0.5;"/><text fill="#000000" font-family="sans-serif" font-size="13" lengthAdjust="spacing" textLength="188" x="449.1771" y="691.5039">Consulter sa formation active</text></g><g id="elem_UC5"><ellipse cx="543.1783" cy="484.9997" fill="#F7F7F7" rx="87.4483" ry="19.8897" style="stroke:#333333;stroke-width:0.5;"/><text fill="#000000" font-family="sans-serif" font-size="13" lengthAdjust="spacing" textLength="139" x="473.6783" y="487.5001">Réaliser une tentative</text></g><g id="elem_UC6"><ellipse cx="543.1761" cy="1300.9992" fill="#F7F7F7" rx="96.4961" ry="21.6992" style="stroke:#333333;stroke-width:0.5;"/><text fill="#000000" font-family="sans-serif" font-size="13" lengthAdjust="spacing" textLength="159" x="463.6761" y="1303.4997">Consulter sa progression</text></g><g id="elem_UC7"><ellipse cx="543.1804" cy="1706.0001" fill="#F7F7F7" rx="83.4504" ry="19.0901" style="stroke:#333333;stroke-width:0.5;"/><text fill="#000000" font-family="sans-serif" font-size="13" lengthAdjust="spacing" textLength="130" x="478.1804" y="1708.5006">Gérer une formation</text></g><g id="elem_UC8a"><ellipse cx="543.1818" cy="618.9984" fill="#F7F7F7" rx="66.2418" ry="15.6484" style="stroke:#333333;stroke-width:0.5;"/><text fill="#000000" font-family="sans-serif" font-size="13" lengthAdjust="spacing" textLength="89" x="496.1373" y="622.1782">Créer un jalon</text></g><g id="elem_UC8b"><ellipse cx="543.1764" cy="760.9953" fill="#F7F7F7" rx="77.7764" ry="17.9553" style="stroke:#333333;stroke-width:0.5;"/><text fill="#000000" font-family="sans-serif" font-size="13" lengthAdjust="spacing" textLength="117" x="484.6764" y="763.4958">Recalibrer un jalon</text></g><g id="elem_UC8c"><ellipse cx="543.1792" cy="554.0038" fill="#F7F7F7" rx="82.5692" ry="18.9138" style="stroke:#333333;stroke-width:0.5;"/><text fill="#000000" font-family="sans-serif" font-size="13" lengthAdjust="spacing" textLength="128" x="479.1792" y="556.5043">Consulter ses jalons</text></g><g id="elem_UC8bis"><ellipse cx="543.1822" cy="1542.9964" fill="#F7F7F7" rx="158.1822" ry="34.0364" style="stroke:#333333;stroke-width:0.5;"/><text fill="#000000" font-family="sans-serif" font-size="13" lengthAdjust="spacing" textLength="289" x="398.6822" y="1545.4969">Consulter les jalons des apprenants attribués</text></g><g id="elem_UC9"><ellipse cx="543.1781" cy="827.0016" fill="#F7F7F7" rx="78.2081" ry="18.0416" style="stroke:#333333;stroke-width:0.5;"/><text fill="#000000" font-family="sans-serif" font-size="13" lengthAdjust="spacing" textLength="118" x="484.1781" y="829.5021">Recevoir un rappel</text></g><g id="elem_UC10"><ellipse cx="543.1837" cy="903.0007" fill="#F7F7F7" rx="130.2537" ry="28.4507" style="stroke:#333333;stroke-width:0.5;"/><text fill="#000000" font-family="sans-serif" font-size="13" lengthAdjust="spacing" textLength="231" x="427.6837" y="905.5012">Recevoir une impulsion bienveillante</text></g><g id="elem_UC11"><ellipse cx="543.1808" cy="1230.0042" fill="#F7F7F7" rx="85.2208" ry="19.4442" style="stroke:#333333;stroke-width:0.5;"/><text fill="#000000" font-family="sans-serif" font-size="13" lengthAdjust="spacing" textLength="134" x="476.1808" y="1232.5047">Envoyer un message</text></g><g id="elem_UC12"><ellipse cx="543.1807" cy="1159.0021" fill="#F7F7F7" rx="93.7607" ry="21.1521" style="stroke:#333333;stroke-width:0.5;"/><text fill="#000000" font-family="sans-serif" font-size="13" lengthAdjust="spacing" textLength="153" x="466.6807" y="1161.5026">Consulter les messages</text></g><g id="elem_UC13"><ellipse cx="543.1835" cy="187.0007" fill="#F7F7F7" rx="96.9535" ry="21.7907" style="stroke:#333333;stroke-width:0.5;"/><text fill="#000000" font-family="sans-serif" font-size="13" lengthAdjust="spacing" textLength="160" x="463.1835" y="189.5012">Paramétrer son interface</text></g><g id="elem_UC14"><ellipse cx="543.1834" cy="345.9987" fill="#F7F7F7" rx="120.7434" ry="26.5487" style="stroke:#333333;stroke-width:0.5;"/><text fill="#000000" font-family="sans-serif" font-size="13" lengthAdjust="spacing" textLength="211" x="437.6834" y="348.4992">Gérer les utilisateurs et les droits</text></g><g id="elem_UC15"><ellipse cx="543.1812" cy="263.9982" fill="#F7F7F7" rx="116.4912" ry="25.6982" style="stroke:#333333;stroke-width:0.5;"/><text fill="#000000" font-family="sans-serif" font-size="13" lengthAdjust="spacing" textLength="202" x="442.1812" y="266.4987">Générer un rappel automatique</text></g><g id="elem_UC16"><ellipse cx="543.1808" cy="1458.9982" fill="#F7F7F7" rx="90.1408" ry="20.4282" style="stroke:#333333;stroke-width:0.5;"/><text fill="#000000" font-family="sans-serif" font-size="13" lengthAdjust="spacing" textLength="145" x="470.6808" y="1461.4986">Générer une impulsion</text></g><g id="elem_UC17"><ellipse cx="543.179" cy="418.9998" fill="#F7F7F7" rx="70.999" ry="16.5998" style="stroke:#333333;stroke-width:0.5;"/><text fill="#000000" font-family="sans-serif" font-size="13" lengthAdjust="spacing" textLength="101" x="492.3478" y="421.5992">Se déconnecter</text></g><g id="elem_UC18"><ellipse cx="543.1826" cy="1380.9985" fill="#F7F7F7" rx="127.3926" ry="27.8785" style="stroke:#333333;stroke-width:0.5;"/><text fill="#000000" font-family="sans-serif" font-size="13" lengthAdjust="spacing" textLength="225" x="430.6826" y="1383.499">Consulter les formations attribuées</text></g><g id="elem_UC19"><ellipse cx="543.1776" cy="1631.9995" fill="#F7F7F7" rx="113.1976" ry="25.0395" style="stroke:#333333;stroke-width:0.5;"/><text fill="#000000" font-family="sans-serif" font-size="13" lengthAdjust="spacing" textLength="195" x="445.6776" y="1634.5">Générer une valorisation finale</text></g><g id="elem_UC20"><ellipse cx="543.1774" cy="1082.9975" fill="#F7F7F7" rx="114.1374" ry="25.2275" style="stroke:#333333;stroke-width:0.5;"/><text fill="#000000" font-family="sans-serif" font-size="13" lengthAdjust="spacing" textLength="197" x="444.6774" y="1085.498">Recevoir une valorisation finale</text></g><!--entity Utilisateur--><g id="elem_Utilisateur"><ellipse cx="38.5" cy="619.44" fill="#F1F1F1" rx="16" ry="16" style="stroke:#333333;stroke-width:0.5;"/><path d="M38.5,639.44 C42.5,639.44 45.5,639.44 49.5,635.44 C57.5,635.44 65.5,643.44 65.5,651.44 L65.5,655.44 C65.5,659.44 61.5,663.44 57.5,663.44 L19.5,663.44 C15.5,663.44 11.5,659.44 11.5,655.44 L11.5,651.44 C11.5,643.44 19.5,635.44 27.5,635.44 C31.5,639.44 34.5,639.44 38.5,639.44 " fill="#F1F1F1" style="stroke:#333333;stroke-width:0.5;"/><text fill="#000000" font-family="sans-serif" font-size="13" lengthAdjust="spacing" textLength="65" x="6" y="676.0069">Utilisateur</text></g><!--entity Apprenant--><g id="elem_Apprenant"><ellipse cx="164.5" cy="805.44" fill="#F1F1F1" rx="16" ry="16" style="stroke:#333333;stroke-width:0.5;"/><path d="M164.5,825.44 C168.5,825.44 171.5,825.44 175.5,821.44 C183.5,821.44 191.5,829.44 191.5,837.44 L191.5,841.44 C191.5,845.44 187.5,849.44 183.5,849.44 L145.5,849.44 C141.5,849.44 137.5,845.44 137.5,841.44 L137.5,837.44 C137.5,829.44 145.5,821.44 153.5,821.44 C157.5,825.44 160.5,825.44 164.5,825.44 " fill="#F1F1F1" style="stroke:#333333;stroke-width:0.5;"/><text fill="#000000" font-family="sans-serif" font-size="13" lengthAdjust="spacing" textLength="67" x="131" y="862.0069">Apprenant</text></g><!--entity Formateur--><g id="elem_Formateur"><ellipse cx="291.5" cy="1279.44" fill="#F1F1F1" rx="16" ry="16" style="stroke:#333333;stroke-width:0.5;"/><path d="M291.5,1299.44 C295.5,1299.44 298.5,1299.44 302.5,1295.44 C310.5,1295.44 318.5,1303.44 318.5,1311.44 L318.5,1315.44 C318.5,1319.44 314.5,1323.44 310.5,1323.44 L272.5,1323.44 C268.5,1323.44 264.5,1319.44 264.5,1315.44 L264.5,1311.44 C264.5,1303.44 272.5,1295.44 280.5,1295.44 C284.5,1299.44 287.5,1299.44 291.5,1299.44 " fill="#F1F1F1" style="stroke:#333333;stroke-width:0.5;"/><text fill="#000000" font-family="sans-serif" font-size="13" lengthAdjust="spacing" textLength="67" x="258" y="1336.0069">Formateur</text></g><!--entity Administrateur--><g id="elem_Administrateur"><ellipse cx="543.18" cy="1773.44" fill="#F1F1F1" rx="16" ry="16" style="stroke:#333333;stroke-width:0.5;"/><path d="M543.18,1793.44 C547.18,1793.44 550.18,1793.44 554.18,1789.44 C562.18,1789.44 570.18,1797.44 570.18,1805.44 L570.18,1809.44 C570.18,1813.44 566.18,1817.44 562.18,1817.44 L524.18,1817.44 C520.18,1817.44 516.18,1813.44 516.18,1809.44 L516.18,1805.44 C516.18,1797.44 524.18,1789.44 532.18,1789.44 C536.18,1793.44 539.18,1793.44 543.18,1793.44 " fill="#F1F1F1" style="stroke:#333333;stroke-width:0.5;"/><text fill="#000000" font-family="sans-serif" font-size="13" lengthAdjust="spacing" textLength="95" x="495.68" y="1830.0069">Administrateur</text></g><!--entity Systeme--><g id="elem_Systeme"><ellipse cx="832.86" cy="1437.44" fill="#F1F1F1" rx="16" ry="16" style="stroke:#333333;stroke-width:0.5;"/><path d="M832.86,1457.44 C836.86,1457.44 839.86,1457.44 843.86,1453.44 C851.86,1453.44 859.86,1461.44 859.86,1469.44 L859.86,1473.44 C859.86,1477.44 855.86,1481.44 851.86,1481.44 L813.86,1481.44 C809.86,1481.44 805.86,1477.44 805.86,1473.44 L805.86,1469.44 C805.86,1461.44 813.86,1453.44 821.86,1453.44 C825.86,1457.44 828.86,1457.44 832.86,1457.44 " fill="#F1F1F1" style="stroke:#333333;stroke-width:0.5;"/><text fill="#000000" font-family="sans-serif" font-size="13" lengthAdjust="spacing" textLength="143" x="761.36" y="1494.0069">Système automatique</text></g><!--link Apprenant to Utilisateur--><g id="link_Apprenant_Utilisateur"><path d="M150.36,788.65 C150.36,742.7 150.36,671.85 150.36,671.85 C150.36,671.85 122.46,671.85 89.46,671.85 " fill="none" id="Apprenant-to-Utilisateur" style="stroke:#666666;stroke-width:1.0;"/><polygon fill="none" points="71.46,671.85,89.46,677.85,89.46,665.85,71.46,671.85" style="stroke:#666666;stroke-width:1.0;"/></g><!--link Utilisateur to Apprenant--><!--link Formateur to Utilisateur--><g id="link_Formateur_Utilisateur"><path d="M291.36,1262.85 C291.36,1126.04 291.36,668.23 291.36,668.23 C291.36,668.23 157.72,668.23 89.3,668.23 " fill="none" id="Formateur-to-Utilisateur" style="stroke:#666666;stroke-width:1.0;"/><polygon fill="none" points="71.3,668.23,89.3,674.23,89.3,662.23,71.3,668.23" style="stroke:#666666;stroke-width:1.0;"/></g><!--link Administrateur to Utilisateur--><g id="link_Administrateur_Utilisateur"><path d="M495.24,1814.04 C369.22,1814.04 38.36,1814.04 38.36,1814.04 C38.36,1814.04 38.36,899.53 38.36,697.37 " fill="none" id="Administrateur-to-Utilisateur" style="stroke:#666666;stroke-width:1.0;"/><polygon fill="none" points="38.36,679.37,32.36,697.37,44.36,697.37,38.36,679.37" style="stroke:#666666;stroke-width:1.0;"/></g><!--link Apprenant to Formateur--><!--link Formateur to Administrateur--><!--link Utilisateur to UC1--><g id="link_Utilisateur_UC1"><path d="M19.36,602.69 C19.36,472.76 19.36,57 19.36,57 C19.36,57 331.88,57 472.16,57 " fill="none" id="Utilisateur-to-UC1" style="stroke:#666666;stroke-width:1.0;"/><polygon fill="#666666" points="478.16,57,469.16,53,473.16,57,469.16,61,478.16,57" style="stroke:#666666;stroke-width:1.0;"/></g><!--link Utilisateur to UC2--><g id="link_Utilisateur_UC2"><path d="M32.36,602.62 C32.36,482.07 32.36,119 32.36,119 C32.36,119 326.94,119 466.96,119 " fill="none" id="Utilisateur-to-UC2" style="stroke:#666666;stroke-width:1.0;"/><polygon fill="#666666" points="472.96,119,463.96,115,467.96,119,463.96,123,472.96,119" style="stroke:#666666;stroke-width:1.0;"/></g><!--link Utilisateur to UC17--><g id="link_Utilisateur_UC17"><path d="M58.36,602.59 C58.36,539.05 58.36,419 58.36,419 C58.36,419 331.14,419 465.91,419 " fill="none" id="Utilisateur-to-UC17" style="stroke:#666666;stroke-width:1.0;"/><polygon fill="#666666" points="471.91,419,462.91,415,466.91,419,462.91,423,471.91,419" style="stroke:#666666;stroke-width:1.0;"/></g><!--link Utilisateur to UC13--><g id="link_Utilisateur_UC13"><path d="M45.36,602.69 C45.36,493.23 45.36,187 45.36,187 C45.36,187 295.14,187 440.02,187 " fill="none" id="Utilisateur-to-UC13" style="stroke:#666666;stroke-width:1.0;"/><polygon fill="#666666" points="446.02,187,437.02,183,441.02,187,437.02,191,446.02,187" style="stroke:#666666;stroke-width:1.0;"/></g><!--link Apprenant to UC3--><g id="link_Apprenant_UC3"><path d="M198.44,853.06 C263.93,853.06 401.36,853.06 401.36,853.06 C401.36,853.06 401.36,941.67 401.36,976.41 " fill="none" id="Apprenant-to-UC3" style="stroke:#666666;stroke-width:1.0;"/><polygon fill="#666666" points="401.36,982.41,405.36,973.41,401.36,977.41,397.36,973.41,401.36,982.41" style="stroke:#666666;stroke-width:1.0;"/></g><!--link Apprenant to UC4--><g id="link_Apprenant_UC4"><path d="M198.3,798.95 C273.75,798.95 449.36,798.95 449.36,798.95 C449.36,798.95 449.36,737.17 449.36,708.05 " fill="none" id="Apprenant-to-UC4" style="stroke:#666666;stroke-width:1.0;"/><polygon fill="#666666" points="449.36,702.05,445.36,711.05,449.36,707.05,453.36,711.05,449.36,702.05" style="stroke:#666666;stroke-width:1.0;"/></g><!--link Apprenant to UC5--><g id="link_Apprenant_UC5"><path d="M159.36,788.77 C159.36,699.52 159.36,485 159.36,485 C159.36,485 336.33,485 449.61,485 " fill="none" id="Apprenant-to-UC5" style="stroke:#666666;stroke-width:1.0;"/><polygon fill="#666666" points="455.61,485,446.61,481,450.61,485,446.61,489,455.61,485" style="stroke:#666666;stroke-width:1.0;"/></g><!--link Apprenant to UC6--><g id="link_Apprenant_UC6"><path d="M198.12,857.06 C255.3,857.06 365.36,857.06 365.36,857.06 C365.36,857.06 365.36,1293.77 365.36,1293.77 C365.36,1293.77 402.1,1293.77 445.67,1293.77 " fill="none" id="Apprenant-to-UC6" style="stroke:#666666;stroke-width:1.0;"/><polygon fill="#666666" points="451.67,1293.77,442.67,1289.77,446.67,1293.77,442.67,1297.77,451.67,1293.77" style="stroke:#666666;stroke-width:1.0;"/></g><!--link Apprenant to UC8a--><g id="link_Apprenant_UC8a"><path d="M178.36,788.85 C178.36,728.81 178.36,619 178.36,619 C178.36,619 365.47,619 470.69,619 " fill="none" id="Apprenant-to-UC8a" style="stroke:#666666;stroke-width:1.0;"/><polygon fill="#666666" points="476.69,619,467.69,615,471.69,619,467.69,623,476.69,619" style="stroke:#666666;stroke-width:1.0;"/></g><!--link Apprenant to UC8b--><g id="link_Apprenant_UC8b"><path d="M188.36,788.61 C188.36,774.09 188.36,761 188.36,761 C188.36,761 354.87,761 459.32,761 " fill="none" id="Apprenant-to-UC8b" style="stroke:#666666;stroke-width:1.0;"/><polygon fill="#666666" points="465.32,761,456.32,757,460.32,761,456.32,765,465.32,761" style="stroke:#666666;stroke-width:1.0;"/></g><!--link Apprenant to UC8c--><g id="link_Apprenant_UC8c"><path d="M169.36,788.47 C169.36,713.22 169.36,554 169.36,554 C169.36,554 344.09,554 454.22,554 " fill="none" id="Apprenant-to-UC8c" style="stroke:#666666;stroke-width:1.0;"/><polygon fill="#666666" points="460.22,554,451.22,550,455.22,554,451.22,558,460.22,554" style="stroke:#666666;stroke-width:1.0;"/></g><!--link Apprenant to UC9--><g id="link_Apprenant_UC9"><path d="M198.44,827 C257.98,827 376.72,827 458.68,827 " fill="none" id="Apprenant-to-UC9" style="stroke:#666666;stroke-width:1.0;"/><polygon fill="#666666" points="464.68,827,455.68,823,459.68,827,455.68,831,464.68,827" style="stroke:#666666;stroke-width:1.0;"/></g><!--link Apprenant to UC10--><g id="link_Apprenant_UC10"><path d="M198.34,849.05 C267.24,849.05 417.36,849.05 417.36,849.05 C417.36,849.05 417.36,874.68 417.36,889.5 " fill="none" id="Apprenant-to-UC10" style="stroke:#666666;stroke-width:1.0;"/><polygon fill="#666666" points="417.36,895.5,421.36,886.5,417.36,890.5,413.36,886.5,417.36,895.5" style="stroke:#666666;stroke-width:1.0;"/></g><!--link Apprenant to UC11--><g id="link_Apprenant_UC11"><path d="M147.36,865.38 C147.36,964.89 147.36,1223.52 147.36,1223.52 C147.36,1223.52 340.33,1223.52 456.13,1223.52 " fill="none" id="Apprenant-to-UC11" style="stroke:#666666;stroke-width:1.0;"/><polygon fill="#666666" points="462.13,1223.52,453.13,1219.52,457.13,1223.52,453.13,1227.52,462.13,1223.52" style="stroke:#666666;stroke-width:1.0;"/></g><!--link Apprenant to UC12--><g id="link_Apprenant_UC12"><path d="M164.36,865.41 C164.36,952.81 164.36,1159 164.36,1159 C164.36,1159 330.86,1159 443.06,1159 " fill="none" id="Apprenant-to-UC12" style="stroke:#666666;stroke-width:1.0;"/><polygon fill="#666666" points="449.06,1159,440.06,1155,444.06,1159,440.06,1163,449.06,1159" style="stroke:#666666;stroke-width:1.0;"/></g><!--link Apprenant to UC20--><g id="link_Apprenant_UC20"><path d="M181.36,865.33 C181.36,936.74 181.36,1083 181.36,1083 C181.36,1083 316.7,1083 422.7,1083 " fill="none" id="Apprenant-to-UC20" style="stroke:#666666;stroke-width:1.0;"/><polygon fill="#666666" points="428.7,1083,419.7,1079,423.7,1083,419.7,1087,428.7,1083" style="stroke:#666666;stroke-width:1.0;"/></g><!--link Formateur to UC18--><g id="link_Formateur_UC18"><path d="M325.2,1328.16 C363.98,1328.16 422.36,1328.16 422.36,1328.16 C422.36,1328.16 422.36,1350.66 422.36,1365.8 " fill="none" id="Formateur-to-UC18" style="stroke:#666666;stroke-width:1.0;"/><polygon fill="#666666" points="422.36,1371.8,426.36,1362.8,422.36,1366.8,418.36,1362.8,422.36,1371.8" style="stroke:#666666;stroke-width:1.0;"/></g><!--link Formateur to UC6--><g id="link_Formateur_UC6"><path d="M325.44,1308.24 C357.71,1308.24 401.71,1308.24 445.66,1308.24 " fill="none" id="Formateur-to-UC6" style="stroke:#666666;stroke-width:1.0;"/><polygon fill="#666666" points="451.66,1308.24,442.66,1304.24,446.66,1308.24,442.66,1312.24,451.66,1308.24" style="stroke:#666666;stroke-width:1.0;"/></g><!--link Formateur to UC7--><g id="link_Formateur_UC7"><path d="M302.36,1339.47 C302.36,1440.56 302.36,1706 302.36,1706 C302.36,1706 383.79,1706 453.29,1706 " fill="none" id="Formateur-to-UC7" style="stroke:#666666;stroke-width:1.0;"/><polygon fill="#666666" points="459.29,1706,450.29,1702,454.29,1706,450.29,1710,459.29,1706" style="stroke:#666666;stroke-width:1.0;"/></g><!--link Formateur to UC8bis--><g id="link_Formateur_UC8bis"><path d="M325.37,1333.61 C357.97,1333.61 402.36,1333.61 402.36,1333.61 C402.36,1333.61 402.36,1472.57 402.36,1521.27 " fill="none" id="Formateur-to-UC8bis" style="stroke:#666666;stroke-width:1.0;"/><polygon fill="#666666" points="402.36,1527.27,406.36,1518.27,402.36,1522.27,398.36,1518.27,402.36,1527.27" style="stroke:#666666;stroke-width:1.0;"/></g><!--link Formateur to UC11--><g id="link_Formateur_UC11"><path d="M308.36,1262.73 C308.36,1248.83 308.36,1236.48 308.36,1236.48 C308.36,1236.48 388.45,1236.48 456.37,1236.48 " fill="none" id="Formateur-to-UC11" style="stroke:#666666;stroke-width:1.0;"/><polygon fill="#666666" points="462.37,1236.48,453.37,1232.48,457.37,1236.48,453.37,1240.48,462.37,1236.48" style="stroke:#666666;stroke-width:1.0;"/></g><!--link Formateur to UC12--><g id="link_Formateur_UC12"><path d="M325.43,1271.12 C372.9,1271.12 453.36,1271.12 453.36,1271.12 C453.36,1271.12 453.36,1195.07 453.36,1171.35 " fill="none" id="Formateur-to-UC12" style="stroke:#666666;stroke-width:1.0;"/><polygon fill="#666666" points="453.36,1165.35,449.36,1174.35,453.36,1170.35,457.36,1174.35,453.36,1165.35" style="stroke:#666666;stroke-width:1.0;"/></g><!--link Administrateur to UC14--><g id="link_Administrateur_UC14"><path d="M495.3,1775.97 C436.75,1775.97 345.36,1775.97 345.36,1775.97 C345.36,1775.97 345.36,346 345.36,346 C345.36,346 375.06,346 416.13,346 " fill="none" id="Administrateur-to-UC14" style="stroke:#666666;stroke-width:1.0;"/><polygon fill="#666666" points="422.13,346,413.13,342,417.13,346,413.13,350,422.13,346" style="stroke:#666666;stroke-width:1.0;"/></g><!--reverse link UC15 to Systeme--><g id="link_UC15_Systeme"><path d="M665.96,264 C746.59,264 833.36,264 833.36,264 C833.36,264 833.36,1216.05 833.36,1420.6 " fill="none" id="UC15-backto-Systeme" style="stroke:#666666;stroke-width:1.0;"/><polygon fill="#666666" points="659.96,264,668.96,268,664.96,264,668.96,260,659.96,264" style="stroke:#666666;stroke-width:1.0;"/></g><!--reverse link UC16 to Systeme--><g id="link_UC16_Systeme"><path d="M627.96,1469.22 C671.35,1469.22 718.81,1469.22 761.05,1469.22 " fill="none" id="UC16-backto-Systeme" style="stroke:#666666;stroke-width:1.0;"/><polygon fill="#666666" points="621.96,1469.22,630.96,1473.22,626.96,1469.22,630.96,1465.22,621.96,1469.22" style="stroke:#666666;stroke-width:1.0;"/></g><!--reverse link UC19 to Systeme--><g id="link_UC19_Systeme"><path d="M656.41,1640.35 C739.07,1640.35 833.36,1640.35 833.36,1640.35 C833.36,1640.35 833.36,1550.7 833.36,1497.46 " fill="none" id="UC19-backto-Systeme" style="stroke:#666666;stroke-width:1.0;"/><polygon fill="#666666" points="650.41,1640.35,659.41,1644.35,655.41,1640.35,659.41,1636.35,650.41,1640.35" style="stroke:#666666;stroke-width:1.0;"/></g><!--link UC5 to UC16--><g id="link_UC5_UC16"><path d="M626.27,491.63 C672.73,491.63 721.36,491.63 721.36,491.63 C721.36,491.63 721.36,1459 721.36,1459 C721.36,1459 683.68,1459 639.58,1459 " fill="none" id="UC5-to-UC16" style="stroke:#666666;stroke-width:1.0;stroke-dasharray:7.0,7.0;"/><polygon fill="#666666" points="633.58,1459,642.58,1463,638.58,1459,642.58,1455,633.58,1459" style="stroke:#666666;stroke-width:1.0;"/><text fill="#000000" font-family="sans-serif" font-size="13" lengthAdjust="spacing" textLength="60" x="722.36" y="984.7369">«extend»</text></g><!--link UC11 to UC16--><g id="link_UC11_UC16"><path d="M628.76,1230 C657.95,1230 683.36,1230 683.36,1230 C683.36,1230 683.36,1448.79 683.36,1448.79 C683.36,1448.79 660.08,1448.79 628.29,1448.79 " fill="none" id="UC11-to-UC16" style="stroke:#666666;stroke-width:1.0;stroke-dasharray:7.0,7.0;"/><polygon fill="#666666" points="622.29,1448.79,631.29,1452.79,627.29,1448.79,631.29,1444.79,622.29,1448.79" style="stroke:#666666;stroke-width:1.0;"/><text fill="#000000" font-family="sans-serif" font-size="13" lengthAdjust="spacing" textLength="60" x="684.36" y="1355.7069">«extend»</text></g><!--link UC5 to UC19--><g id="link_UC5_UC19"><path d="M626.08,478.37 C680.39,478.37 741.36,478.37 741.36,478.37 C741.36,478.37 741.36,1623.66 741.36,1623.66 C741.36,1623.66 703.09,1623.66 656.39,1623.66 " fill="none" id="UC5-to-UC19" style="stroke:#666666;stroke-width:1.0;stroke-dasharray:7.0,7.0;"/><polygon fill="#666666" points="650.39,1623.66,659.39,1627.66,655.39,1623.66,659.39,1619.66,650.39,1623.66" style="stroke:#666666;stroke-width:1.0;"/><text fill="#000000" font-family="sans-serif" font-size="13" lengthAdjust="spacing" textLength="60" x="680.36" y="1051.9269">«extend»</text></g><!--SRC=[bLVDRjj64BxhAGRgGJ9gow5-B3j81IHkN1HDaS2EWG9j3ojo9Msyt6LsbqhSdtV9CRht3VHYdLbIr9AKabQ6BNDsTlxdcs4FpgeFtBb7oGD2npu8bJ73Kc2nqwOuPn-urIaF3ksA9Vg3K4jOC6d34wDpbSJQA6xWCg0_DqP_kDPI6_Zcmd-QXszN8dvGt5g8mYCouuKs2JVbxP7_D5bkj79tuWyEKNXqRtdCBF_o_HqJYn-MtloIyMPAFst6mwfkUUoOMiglAAlOl1GVthcMIS2XTC8jps3q90mhKmz4l0Y9KYZk7ZCEshYLxdGaNpXm6enOhXmamg0keLMdqmjpZk7YkR6G6Q5YaR7y8_INB8zN_2Ii19z_k7T22ileHabvdcM6AwPS-NoZJLexJrAXX7Mc87OgVXJ-rwmciBhQFgfBQP-ZIwzDOZYikN4YPX8MsiJR3VIbuCg2K6jXnLnoUmAPHWcv0YR5Kl6KeocPqMXL9v08Px-kH99mzNjoDWkS3CmF6VPU1qxK93J2O7PvXowAb6WofGOI3ZONQm59ZtbDJbZBbhmBVtO0ygBWe7lNOxbRqUb2SDC5Pk7-EWevVjXk3BQSHPdet4B8acaOCbrhPNFfa0y30wbESlhc3b8H6tsstJYMSVkR8giOHJJrLfQYHeT5XPo46cBDomlZyCBjTeC9i9nImS6XBonWdHoLZTui3QB2tewB0twJpAQzqvfCizruFdZ7PCLooMecuhSKStE0Rtx4FWoVvxCxnlXul0j6JBa5jgig_DSv8-RvTbE9c0lRi8gljV0s6Rp8TwczEiB5GQHPBYbYCCTkM7CX9UhQnJfw4bvygTRwiV0uvMNj5MpH5qgduDoP7DMgx0s14zRIhXu5gZOB5bU2HmSII5BpVJlwgYHQOhHmbPvnuwRQPR-C362RQ2g2ztcbRNBiJX2d7M-jjEuu9DjDh9N2tjrttVHuMAeA3DAw3zBbSKFMM1g6NAUSBOHYiZB_U9QFNne-wVnz4FMnOD6VXE5eWBuFRHtqU_0zUYmPDWiyVtFxyWxTWZrqVGiBkVsCay83B3UMtCDBtyq8P2rQY4oIFUhSmVOJFMGIysxeeT1M3edktQDrsyyfRoMC3X2Z6zQ7GDsFTPfYnb6cGwK-y6RxZuVwcYiOl7EC1JobDBv3TiHYn-8LjXfT3cIU0XADS7I2ezMB79L2eV_wfrEaKkC2BZRbK3sf3mz4V0BaDcs8Xjpy-0j4Q4QxelelReRHAQ4ctUY-tVaJTaBt15ActkTCEA09iFriYY6Mv3ZZsHARBUM7h9cMgYz8zHUQ4es8fdiZ0aceccO2Agv2XvL7kV86R3-XXls0f7AqW8UK-3ckZ481jmwMHQdJjJ9fBdGG4xeOm7Wm7OoW-weNdcGyTwWYmqh3c1NZOp0OT0y6VzIi-63ngAeY9CxyJ6jInYtAf4MvQ55maBH8ypOfRf6kMXI4vnOfQfE6BH9sVJq2uNuLz0NL17K5-lhLEMwu4mG6M6kXD8Yf5rJCCmTzmYBBSPL0sKq97WP8iC3kf68eDYzFxbLJi2Y1qM1uCe1Nkq5EckBIEiIHt0hgXb075Pi0YRzO7Yw4NEYF1j7m19rKEbzpbdlyfUPBn7Opg6sUimARcwIBCb9Z7wdfiKqZHlc6O0mt5C166k8oZNuMkztn7UiKfHTbFnoCpkdlcD1hXpFtru3OcdaSnjw9QTmYPf-2nP4bSGairySrlcNW8aLm7g91sy5fY-BNZ5OSeZPfsEohvchUAAs93rWqnjfHYDJemN-TyNvHzm752OUnl8INR-dx2YNto-nMaItG-RouUtBgIq7rs9hGQX_5AkCjgsV5Fb7txT1OWlw1eLSRDRHamBFoEWqlsYIQXAiQeQxsbikoeF6LJEPe-ZdmZxWZ9_Nmla58HTpl-JE_tps5eg1WWM-8yKhm7PfE1YD4oUi93BoZD0EUFIjapcP7H9LRNOYtHUll6xAIFYRfKVH_nEFSpYIQIqzEErnNA4aoX9rI_6WmEONRdy-6az27gvgIVm40]--></g></svg>